<?xml version="1.0" encoding="UTF-8" standalone="no"?>
<!-- Created with Inkscape (http://www.inkscape.org/) -->

<svg
   version="1.1"
   id="svg1"
   width="1591.2731"
   height="894.24561"
   viewBox="0 0 1591.2731 894.24561"
   sodipodi:docname="favicon.svg"
   inkscape:version="1.4.3 (0d15f75, 2025-12-25)"
   xmlns:inkscape="http://www.inkscape.org/namespaces/inkscape"
   xmlns:sodipodi="http://sodipodi.sourceforge.net/DTD/sodipodi-0.dtd"
   xmlns="http://www.w3.org/2000/svg"
   xmlns:svg="http://www.w3.org/2000/svg">
  <defs
     id="defs1" />
  <sodipodi:namedview
     id="namedview1"
     pagecolor="#ffffff"
     bordercolor="#000000"
     borderopacity="0.25"
     inkscape:showpageshadow="2"
     inkscape:pageopacity="0.0"
     inkscape:pagecheckerboard="0"
     inkscape:deskcolor="#d1d1d1"
     showgrid="false"
     inkscape:zoom="0.50647059"
     inkscape:cx="794.71544"
     inkscape:cy="427.46806"
     inkscape:window-width="1920"
     inkscape:window-height="1080"
     inkscape:window-x="0"
     inkscape:window-y="54"
     inkscape:window-maximized="0"
     inkscape:current-layer="g1" />
  <g
     inkscape:groupmode="layer"
     inkscape:label="Image"
     id="g1"
     transform="translate(-58.157395,-422.83754)">
    <path
       style="fill:#000000"
       d="m 217.01072,1315.2484 c -5.21015,-2.6107 -5.85311,-5.7286 -2.63213,-12.7642 4.03847,-8.8212 11.80131,-17.8067 37.1353,-42.9842 31.72111,-31.5252 38.72231,-40.7347 45.32505,-59.6214 4.25558,-12.1728 5.68506,-22.9901 4.28342,-32.4141 -2.91946,-19.629 -13.75366,-37.1901 -27.12434,-43.9655 -2.89485,-1.4669 -10.49116,-4.4514 -16.88069,-6.6322 -17.17045,-5.8605 -28.78273,-11.9089 -36.57908,-19.0529 -8.9202,-8.1737 -11.92641,-14.0716 -11.88343,-23.3139 0.04,-8.6056 2.74364,-14.8284 10.86169,-25 10.52495,-13.1873 25.13669,-24.2707 63.98349,-48.5332 64.53458,-40.30621 86.5,-57.50845 86.5,-67.74253 0,-10.03073 -18.39754,-16.93653 -57,-21.39581 -8.6835,-1.0031 -32.3176,-1.331 -96.5,-1.33884 -77.59832,-0.009 -85.78369,-0.16611 -93.99983,-1.79869 -19.16857,-3.80887 -18.29197,-8.5349 3.15417,-17.00505 16.03943,-6.33477 37.23867,-12.11692 83.05994,-22.65479 86.42223,-19.87521 164.55601,-53.74107 184.85659,-80.1232 C 401.27862,778.8911 403.5,772.98303 403.5,762.5 c 0,-8.22536 -0.29019,-9.57823 -3.37155,-15.71806 -3.65523,-7.28329 -13.45749,-19.68423 -20.32811,-25.71727 C 359.03029,702.82662 326.00358,690.50921 284,685.33564 c -11.1769,-1.37665 -21.71915,-1.78046 -46,-1.76198 -40.58727,0.0309 -73.64736,2.827 -135.79214,11.48478 -28.322485,3.94579 -42.510244,4.87934 -43.746804,2.87855 -2.219822,-3.59175 6.86883,-7.51993 56.109384,-24.25091 C 266.05136,622.21584 330.60829,597.31915 391,567.07973 c 32.66194,-16.35454 53.78095,-30.15394 70,-45.73881 12.74209,-12.24387 18.32548,-23.12721 15.02681,-29.29083 -3.58521,-6.69902 -23.03116,-8.73818 -53.02681,-5.56054 -22.28701,2.36101 -25.83719,0.94027 -20.91629,-8.37047 10.10379,-19.1172 54.26818,-45.53455 88.00116,-52.63875 16.88965,-3.55697 41.23913,-3.51878 55.18996,0.0866 30.16993,7.79688 52.70083,30.48328 63.55669,63.99537 4.9068,15.1473 5.67266,21.13514 5.61977,43.93773 -0.0842,36.29523 -1.48458,41.78718 -47.93822,188 -44.22266,139.19079 -61.24964,194.61353 -82.02774,267 -21.96326,76.51527 -40.80939,149.50927 -39.0545,151.26417 0.20645,0.2064 2.10647,-0.5049 4.22226,-1.5806 10.00761,-5.0884 70.15776,-29.1104 101.84691,-40.6744 59.56445,-21.7362 100.03226,-34.4765 133,-41.8718 44.28491,-9.9341 71.68027,-11.682 94.31652,-6.0177 3.47409,0.8693 6.45909,1.423 6.63334,1.2304 0.17424,-0.1925 1.26133,-3.9501 2.41574,-8.3501 1.15441,-4.4 3.23191,-11.7635 4.61666,-16.3633 4.74737,-15.7696 2.45361,-27.53695 -6.65864,-34.16 -10.68683,-7.7675 -17.74295,-8.96636 -57.82362,-9.82439 -24.37937,-0.5219 -33.12466,-1.03476 -35,-2.05251 -9.2524,-5.02134 -8.01941,-10.33945 5.24431,-22.61962 11.14882,-10.3221 20.14951,-15.88844 76.75569,-47.46839 31.68215,-17.67512 46.86619,-28.68563 56.5,-40.97024 2.75,-3.50668 6.82261,-8.65756 9.05024,-11.4464 9.47176,-11.858 17.88924,-14.1536 31.96448,-8.7173 11.06911,4.27524 19.83522,9.62319 26.68824,16.28172 6.50299,6.31842 10.01952,12.96681 12.5407,23.70957 l 1.62791,6.93655 2.69465,-4.15283 c 1.48205,-2.28406 5.33595,-6.69349 8.56421,-9.79874 9.62097,-9.25436 52.69457,-42.36244 69.61957,-53.51236 8.6625,-5.70672 15.75,-10.49254 15.75,-10.63516 0,-0.14262 -4.3875,0.16017 -9.75,0.67287 -10.7199,1.02489 -29.91507,-0.33674 -38.90798,-2.75999 l -5.15798,-1.38988 -1.72583,4.51903 c -4.96091,12.98996 -22.7811,21.21667 -45.95821,21.21667 -12.93483,0 -22.04837,-1.96736 -32.12907,-6.93578 -28.27859,-13.93749 -35.43268,-39.97716 -15.89026,-57.83783 20.10018,-18.37043 65.43302,-14.6889 86.11449,6.99346 l 5.73178,6.00917 7.08653,-2.08072 c 3.89759,-1.1444 18.11279,-4.3277 31.58933,-7.07402 13.4765,-2.74631 26.9765,-5.84503 30,-6.88604 l 5.4972,-1.89275 -0.181,-4.04664 c -0.221,-4.93987 -2.1186,-8.78137 -6.4968,-13.15229 -5.8884,-5.87847 -12.0623,-8.01779 -36.5722,-12.67262 -4.59904,-0.87344 -2.17431,-3.39026 8,-8.30386 5.6375,-2.72258 17,-7.27058 25.25,-10.10666 33.3251,-11.45607 43.3746,-19.43686 51.9361,-41.24497 6.8849,-17.53747 14.5118,-24.13877 27.7997,-24.06147 17.5512,0.1021 35.5222,17.44234 41.2765,39.82775 2.0592,8.01098 2.8466,22.225 1.7578,31.73349 l -0.8856,7.73348 4.5577,1.49238 c 17.5229,5.7376 41.2609,8.35916 59.3904,6.5589 13.1473,-1.30552 18.9851,-2.70919 33.4441,-8.04142 5.8978,-2.17502 11.5243,-3.95959 12.5032,-3.96571 5.2174,-0.0326 -9.7745,12.70479 -25.6911,21.8276 -18.4588,10.57992 -45.9471,20.53177 -79.612,28.82272 l -18.5232,4.56187 -10.8124,31.63835 c -15.2253,44.55106 -20.8394,62.24128 -28.2739,89.0925 -14.3293,51.75345 -17.3735,67.00945 -17.3542,86.97206 0.029,30.04245 8.5683,49.71145 25.1875,58.01615 5.1479,2.5724 7.2776,3.0576 13.4216,3.0576 13.882,0 24.885,-6.1843 42.4469,-23.8575 21.1978,-21.3322 37.2003,-49.94012 45.9274,-82.10497 3.8538,-14.20377 6.7952,-19.70338 14.2095,-26.56769 11.8012,-10.92583 26.2232,-15.38618 52.294,-16.17313 17.0578,-0.51489 33.3021,1.10546 35.7641,3.56742 0.5442,0.54421 0.7264,2.03753 0.4049,3.31849 -0.7951,3.16804 -19.3405,24.15302 -42.7002,48.31741 -10.6337,11 -24.7186,26.3 -31.2998,34 -26.1179,30.55797 -50.6456,56.06967 -67.0824,69.77357 -20.3359,16.9547 -37.8462,22.7123 -69.0866,22.7165 -26.7795,0 -52.1501,-6.691 -66.9914,-17.6771 l -3.9914,-2.9546 -3.0086,4.7505 c -5.7304,9.0482 -18.02477,22.1942 -33.43064,35.7464 -8.51184,7.4877 -19.49145,17.3628 -24.39911,21.9445 -27.17056,25.3663 -53.85847,42.6668 -83.12532,53.8863 -24.08961,9.2348 -53.49221,13.8386 -61.55353,9.6378 -2.9157,-1.5194 -3.55154,-2.4454 -3.80875,-5.5469 -0.43028,-5.1883 2.28527,-10.6728 10.78257,-21.777 9.59022,-12.5325 12.00391,-17.7248 12.01641,-25.85 0.009,-5.8575 -0.24637,-6.6061 -3.29288,-9.6527 -8.48171,-8.4817 -32.43623,-9.5731 -62.64579,-2.8542 -36.65528,8.1525 -104.67473,36.1668 -133.21066,54.8638 -5.74172,3.762 -14.65668,11.0841 -21.56458,17.7116 -17.78846,17.0663 -59.17184,49.5802 -82.69421,64.9707 -20.27782,13.2677 -41.03633,22.8108 -49.61865,22.8108 -3.09363,0 -4.26804,-0.5352 -5.58511,-2.5453 -2.29019,-3.4953 -0.91825,-7.7008 6.20966,-19.0351 13.04533,-20.7438 12.7366,-24.2597 -1.88647,-21.4833 -18.84965,3.5788 -47.42612,12.1897 -124.70154,37.5762 -56.70474,18.6287 -70.38413,22.8433 -90.5,27.8829 -24.12682,6.0445 -36.86381,7.173 -43.48928,3.853 z m 693.16161,-212.6289 c 12.53927,-5.1575 24.89338,-16.4888 39.92479,-36.6195 19.09882,-25.5779 32.18163,-56.5341 32.33952,-76.52103 0.0562,-7.12018 -0.30648,-8.77228 -3.22965,-14.71007 -4.32509,-8.78551 -10.9592,-14.58216 -23.70699,-20.71431 -5.5,-2.64571 -14.94217,-7.17444 -20.98261,-10.06385 -8.60672,-4.11697 -12.19351,-6.49097 -16.57999,-10.97384 l -5.59738,-5.72036 -9.14951,29.60173 c -14.32523,46.34693 -22.0476,75.82183 -24.2561,92.58123 -1.6985,12.8893 -0.76933,32.5617 1.85763,39.3296 5.80069,14.9445 15.51781,19.5121 29.38029,13.8104 z M 1498.8232,910.35333 c -1.4723,-0.25963 -3.2177,-1.12375 -3.8788,-1.92027 -0.661,-0.79652 -1.6341,-6.95731 -2.1624,-13.69064 -0.5283,-6.73333 -1.58,-13.68793 -2.3371,-15.45465 -2.1809,-5.08933 -10.3621,-8.38031 -27.9449,-11.24125 -9.4931,-1.54464 -18.5,-4.10401 -18.5,-5.25691 0,-4.5261 56.857,-63.89401 73,-76.22379 21.5644,-16.47056 48.7563,-24.67917 77,-23.24453 26.9564,1.36924 44.9938,9.79414 52.1662,24.36581 3.0619,6.2208 3.3273,7.50868 3.2546,15.79302 -0.065,7.39664 -0.6598,10.72952 -3.3053,18.51988 -10.4715,30.83552 -32.8729,56.45089 -62.7402,71.74149 -21.385,10.94804 -42.8356,16.37857 -66.3753,16.80386 -8.525,0.15402 -16.7046,0.0676 -18.1768,-0.19202 z"
       id="path1" />
  </g>
</svg>
